<?xml version="1.0" encoding="UTF-8"?>
<svg version="1.1" xmlns="http://www.w3.org/2000/svg" width="240" height="245">
<path d="M0 0 C1.2055957 -0.05607422 1.2055957 -0.05607422 2.43554688 -0.11328125 C3.22380859 -0.12488281 4.01207031 -0.13648437 4.82421875 -0.1484375 C5.89869263 -0.1781665 5.89869263 -0.1781665 6.99487305 -0.20849609 C9.3125 0.375 9.3125 0.375 12.06860352 2.86572266 C15.73115882 6.10927808 18.96217776 6.09155168 23.703125 6.046875 C24.88186188 6.06599945 24.88186188 6.06599945 26.08441162 6.08551025 C28.57748025 6.12165067 31.06919316 6.12451811 33.5625 6.125 C36.06958464 6.14662108 38.57646627 6.17505571 41.08343506 6.20733643 C42.63923376 6.22508836 44.19513905 6.23538015 45.7510376 6.23748779 C51.09550252 6.26650126 51.09550252 6.26650126 53.3125 7.375 C56.29229397 7.8591615 59.27850804 8.27097625 62.26953125 8.6796875 C65.50106484 9.4180867 67.50518773 10.65650511 70.3125 12.375 C72.3958715 13.01020612 74.50272238 13.57274363 76.625 14.0625 C77.69363281 14.31386719 78.76226562 14.56523438 79.86328125 14.82421875 C80.67152344 15.00597656 81.47976562 15.18773438 82.3125 15.375 C84.7875 10.425 84.7875 10.425 87.3125 5.375 C88.9625 5.375 90.6125 5.375 92.3125 5.375 C93.3125 6.375 93.3125 6.375 93.33203125 8.23046875 C92.84021752 13.77033281 91.77968601 17.01305631 88.3125 21.375 C88.87517578 22.01115234 88.87517578 22.01115234 89.44921875 22.66015625 C89.96097656 23.24667969 90.47273437 23.83320313 91 24.4375 C91.74830078 25.29021484 91.74830078 25.29021484 92.51171875 26.16015625 C93.10597656 26.89105469 93.70023438 27.62195313 94.3125 28.375 C95.19808594 29.31988281 96.08367187 30.26476562 96.99609375 31.23828125 C100.81461741 36.64995901 99.87639029 43.162405 99.6875 49.5 C99.67332031 50.76199219 99.65914062 52.02398437 99.64453125 53.32421875 C99.56271303 58.46785756 99.46778648 63.34617461 98.3125 68.375 C99.01632813 68.07851562 99.72015625 67.78203125 100.4453125 67.4765625 C107.41321177 64.79952218 114.81332515 62.70840668 122.3125 63.375 C123.3125 64.375 123.3125 64.375 123.375 66.9375 C123.354375 67.741875 123.33375 68.54625 123.3125 69.375 C119.63607706 71.49201475 115.71255172 72.39569568 111.625 73.375 C110.55197632 73.63990234 110.55197632 73.63990234 109.45727539 73.91015625 C105.12899371 74.97050426 100.79800293 75.94404813 96.40234375 76.6875 C93.80118287 77.543209 91.61353676 78.93428882 89.26391602 80.31884766 C85.92448024 82.12622901 82.39510033 83.32877806 78.8125 84.5625 C78.09191406 84.82224609 77.37132812 85.08199219 76.62890625 85.34960938 C73.22000894 86.54241521 70.19715971 87.39014447 66.59375 87.86328125 C63.32794866 88.14949329 63.32794866 88.14949329 60.9921875 89.84375 C57.01557365 92.11610077 52.93925981 92.34111633 48.4375 92.875 C41.40225946 93.70362884 41.40225946 93.70362884 34.734375 95.984375 C30.37242154 97.75704102 27.051203 97.546597 22.4375 97.125 C21.66664062 97.07214844 20.89578125 97.01929688 20.1015625 96.96484375 C14.47650298 96.53900298 14.47650298 96.53900298 13.3125 95.375 C10.69394517 95.22114141 8.11992237 95.14333716 5.5 95.125 C4.77490234 95.104375 4.04980469 95.08375 3.30273438 95.0625 C-1.06152035 95.03055669 -3.48840751 95.36542721 -6.6875 98.375 C-8.34566784 99.06253301 -10.01209336 99.73061283 -11.6875 100.375 C-12.6775 101.035 -13.6675 101.695 -14.6875 102.375 C-15.6775 102.375 -16.6675 102.375 -17.6875 102.375 C-17.6875 103.035 -17.6875 103.695 -17.6875 104.375 C-19.3375 104.375 -20.9875 104.375 -22.6875 104.375 C-23.0175 102.395 -23.3475 100.415 -23.6875 98.375 C-21.12758376 96.36363724 -18.64159701 94.74654504 -15.6875 93.375 C-17.44746327 91.61503673 -19.84733494 92.00265411 -22.21020508 91.77929688 C-29.5068849 91.08845012 -35.94487189 89.88802448 -42.84765625 87.3125 C-45.88333797 86.31034923 -48.77433954 85.8172896 -51.9375 85.375 C-58.85232874 84.35225701 -64.30754113 81.85829906 -69.6875 77.375 C-70.0175 78.695 -70.3475 80.015 -70.6875 81.375 C-71.30625 81.436875 -71.925 81.49875 -72.5625 81.5625 C-74.92537497 82.18193523 -74.92537497 82.18193523 -75.75 84.6875 C-76.059375 85.574375 -76.36875 86.46125 -76.6875 87.375 C-77.64574253 88.73865283 -78.63471175 90.08294169 -79.6875 91.375 C-81.3375 91.045 -82.9875 90.715 -84.6875 90.375 C-84.03602929 84.90264604 -82.65260537 80.34010537 -78.6875 76.375 C-79.3475 75.92125 -80.0075 75.4675 -80.6875 75 C-81.3475 74.46375 -82.0075 73.9275 -82.6875 73.375 C-82.6875 72.715 -82.6875 72.055 -82.6875 71.375 C-83.8940625 71.189375 -83.8940625 71.189375 -85.125 71 C-85.970625 70.79375 -86.81625 70.5875 -87.6875 70.375 C-89.59386558 66.56226885 -88.95930083 61.94472782 -89 57.75 C-89.02900391 56.77675781 -89.05800781 55.80351562 -89.08789062 54.80078125 C-89.14483392 48.2917243 -88.18234213 43.8692836 -84.6875 38.375 C-84.16027344 37.50230469 -83.63304687 36.62960938 -83.08984375 35.73046875 C-82.36474609 34.65732422 -82.36474609 34.65732422 -81.625 33.5625 C-81.13902344 32.83417969 -80.65304688 32.10585937 -80.15234375 31.35546875 C-78.6875 29.375 -78.6875 29.375 -77.125 27.82421875 C-75.22376692 25.90748648 -74.09908304 23.66189772 -72.84765625 21.2890625 C-69.24819013 15.35054938 -66.1051671 13.30928305 -59.6875 11.1875 C-54.54590567 9.50998152 -54.54590567 9.50998152 -49.66796875 7.2265625 C-46.56034956 5.89034754 -43.33269475 6.03027888 -40 5.9375 C-34.60593349 5.705627 -30.00877747 5.07851099 -24.98828125 3.0703125 C-20.86470349 1.8241379 -16.59419337 1.79407537 -12.3125 1.5859375 C-8.2397041 1.25865926 -4.46391115 0.07690372 0 0 Z M-1.3125 8.3125 C-7.35559664 9.48186782 -13.3541113 9.76340534 -19.49267578 9.94506836 C-23.48284764 10.0976719 -26.17959144 10.57441708 -29.6875 12.375 C-32.06017068 12.49733194 -34.43670807 12.55050105 -36.8125 12.5625 C-43.4317232 12.80185136 -49.18395392 14.16357626 -55.375 16.5 C-56.12861816 16.77094482 -56.88223633 17.04188965 -57.65869141 17.32104492 C-64.24926876 19.98179549 -66.63840234 23.87445817 -70.1875 29.9375 C-71.6875 32.375 -71.6875 32.375 -74.1875 35.3125 C-80.50098997 43.04652521 -82.37224701 51.32514948 -82.17578125 61.1484375 C-81.68158961 64.41405587 -81.4758382 65.54912225 -78.9375 67.5625 C-74.73378144 69.77588651 -70.03544213 70.61466337 -65.42578125 71.625 C-62.11036186 72.53307493 -60.17471153 74.03852856 -57.6875 76.375 C-54.61566068 77.99624853 -51.97150094 78.47703729 -48.5625 78.75 C-45.02971319 79.07116244 -42.31566212 79.85578766 -39.0625 81.25 C-30.46781146 84.64101772 -20.96916637 85.06881583 -11.85131836 86.04956055 C-9.6875 86.375 -9.6875 86.375 -7.6875 87.375 C-6.13859421 87.50377362 -4.58488056 87.57723175 -3.03125 87.62109375 C-1.61972656 87.67040039 -1.61972656 87.67040039 -0.1796875 87.72070312 C1.78376603 87.78093962 3.74730947 87.83832695 5.7109375 87.89257812 C11.36962915 88.09576963 16.689883 88.68458207 22.21801758 89.92675781 C26.53669542 90.85100219 29.36575816 90.8135289 33.390625 88.94921875 C38.50617417 86.68926494 43.87122952 86.25546194 49.37304688 85.55859375 C54.28310693 84.87565974 57.90350815 83.76346376 62.3125 81.375 C64.17122049 80.83612725 66.04814212 80.35648983 67.9375 79.9375 C80.33955061 77.2698223 80.33955061 77.2698223 91.3125 71.375 C91.84615366 68.61631524 92.0383497 66.47152307 92.01171875 63.70703125 C92.01887405 62.95338791 92.02602936 62.19974457 92.03340149 61.42326355 C92.04118458 59.82702824 92.0361531 58.23068667 92.01928711 56.63452148 C92.00019259 54.2119346 92.03928074 51.79519371 92.08398438 49.37304688 C92.20927164 38.7387785 92.20927164 38.7387785 86.90600586 29.81616211 C86.38014893 29.34057861 85.85429199 28.86499512 85.3125 28.375 C84.76770996 27.80467041 84.22291992 27.23434082 83.66162109 26.64672852 C79.47599081 22.32592137 74.5756457 20.86182211 68.88671875 19.234375 C66.3125 18.375 66.3125 18.375 64.3125 16.375 C62.16025777 15.94171966 59.98914434 15.5990273 57.8125 15.3125 C51.49679003 14.46714502 51.49679003 14.46714502 49.3125 13.375 C47.17795998 13.31314266 45.04143978 13.31522115 42.90625 13.34765625 C41.60429687 13.35990234 40.30234375 13.37214844 38.9609375 13.38476562 C36.89866661 13.40936286 34.83655468 13.43710524 32.77441406 13.47094727 C14.59836545 13.75040951 14.59836545 13.75040951 9.3125 11.375 C8.05273438 9.29711914 8.05273438 9.29711914 7.3125 7.375 C4.06984467 7.375 1.78746548 7.63838052 -1.3125 8.3125 Z " fill="#131313" transform="translate(104.6875,106.625)"/>
<path d="M0 0 C2.69299489 0.04848272 5.38256706 0.13195078 8.07421875 0.23046875 C9.15316406 0.2253125 10.23210937 0.22015625 11.34375 0.21484375 C18.49040308 0.38123847 22.54387334 1.36647223 27.68359375 6.44140625 C29.07421875 8.23046875 29.07421875 8.23046875 30.07421875 11.23046875 C31.06421875 11.56046875 32.05421875 11.89046875 33.07421875 12.23046875 C37.52052554 16.57657708 38.48899135 21.3532267 38.69921875 27.41796875 C38.5288326 31.73748795 38.448603 33.67456486 36.01171875 37.29296875 C35.04234375 37.93234375 34.07296875 38.57171875 33.07421875 39.23046875 C32.29498047 39.86662109 32.29498047 39.86662109 31.5 40.515625 C27.63672796 43.60444157 23.82986762 45.20394643 19.08984375 46.5546875 C16.79927158 47.22495251 16.79927158 47.22495251 14.07421875 49.23046875 C11.8125 49.42578125 11.8125 49.42578125 9.38671875 49.35546875 C8.57847656 49.33742187 7.77023438 49.319375 6.9375 49.30078125 C6.32261719 49.27757812 5.70773438 49.254375 5.07421875 49.23046875 C5.40421875 49.89046875 5.73421875 50.55046875 6.07421875 51.23046875 C6.1984122 53.72300251 6.25937388 56.17537631 6.26171875 58.66796875 C6.27396484 59.34923828 6.28621094 60.03050781 6.29882812 60.73242188 C6.30977723 64.45876684 6.19427494 66.05038446 4.07421875 69.23046875 C1.63671875 68.85546875 1.63671875 68.85546875 -0.92578125 68.23046875 C-2.66470299 64.75262528 -2.29402042 60.57854671 -2.44335938 56.72851562 C-2.63293767 53.07645068 -2.84938782 51.3450589 -4.92578125 48.23046875 C-5.17578125 44.66796875 -5.17578125 44.66796875 -4.92578125 41.23046875 C-4.26578125 40.57046875 -3.60578125 39.91046875 -2.92578125 39.23046875 C-0.30997646 39.55744435 1.71500012 40.05085943 4.07421875 41.23046875 C10.63215173 41.78622578 13.57811283 40.75627255 19.07421875 37.23046875 C20.34265625 36.73546875 20.34265625 36.73546875 21.63671875 36.23046875 C25.02475847 34.84050374 27.36050084 33.75485751 30.07421875 31.23046875 C31.49219137 27.57832464 31.26689054 24.93429338 30.07421875 21.23046875 C26.53702181 15.35632133 22.26019361 10.3778223 15.44482422 8.50976562 C9.35609026 7.47667802 3.24289051 7.20619629 -2.92578125 7.23046875 C-3.55078125 4.85546875 -3.55078125 4.85546875 -3.92578125 2.23046875 C-1.92578125 0.23046875 -1.92578125 0.23046875 0 0 Z " fill="#141414" transform="translate(109.92578125,24.76953125)"/>
<path d="M0 0 C6.875 0.875 6.875 0.875 8 2 C16.09422171 4.04694913 24.28564251 5.4337313 32.55078125 6.5703125 C35 7 35 7 36 8 C40.61733357 8.59296284 44.62051477 8.66885603 48.5625 6 C49.366875 5.34 50.17125 4.68 51 4 C52.32 4.66 53.64 5.32 55 6 C54.78977719 9.67889913 54.02023532 10.97774115 51.5 13.75 C47.6563207 16.67193366 43.7454444 17.17271115 39 17 C32.9527027 15.9527027 32.9527027 15.9527027 31 14 C28.02904548 13.71292924 25.05777744 13.55137382 22.078125 13.37890625 C19.02778595 13.00342035 16.81365117 12.18445638 14 11 C12.33987218 10.67316234 10.67250087 10.38110169 9 10.125 C4.72058053 9.33298804 2.14303198 8.14303198 -1 5 C-0.67 3.35 -0.34 1.7 0 0 Z " fill="#151515" transform="translate(42,159)"/>
<path d="M0 0 C2.0625 0.4375 2.0625 0.4375 4 1 C4.33 2.32 4.66 3.64 5 5 C3.35 5.66 1.7 6.32 0 7 C-0.66 6.34 -1.32 5.68 -2 5 C-1.46428571 1.46428571 -1.46428571 1.46428571 0 0 Z " fill="#3E3E3E" transform="translate(46,141)"/>
<path d="M0 0 C1.65 0.33 3.3 0.66 5 1 C5 2.32 5 3.64 5 5 C3.35 5.33 1.7 5.66 0 6 C-1.125 2.25 -1.125 2.25 0 0 Z " fill="#2F2F2F" transform="translate(93,147)"/>
<path d="M0 0 C1.65 0.33 3.3 0.66 5 1 C4.67 2.65 4.34 4.3 4 6 C2.35 5.67 0.7 5.34 -1 5 C-0.67 3.35 -0.34 1.7 0 0 Z " fill="#2D2D2D" transform="translate(110,96)"/>
</svg>
